#N canvas 285 47 1438 945 12;
#X msg 50 24 \; pd dsp 1, f 13;
#X obj 51 80 loadbang;
#X msg 50 121 1;
#X obj 50 166 s start-music;
#X obj 32 211 r start-music;
#X obj 32 250 metro 2400;
#X obj 32 288 f 0;
#X obj 32 333 mod 4;
#X obj 92 286 + 1;
#X obj 32 368 sel 0 1 2 3;
#X msg 34 416 48;
#X msg 90 415 43;
#X msg 147 414 45;
#X msg 201 413 41;
#X obj 35 469 s root;
#X obj 278 69 r root;
#X obj 279 103 mtof;
#X obj 279 134 sig~;
#X obj 279 165 osc~;
#X obj 279 195 *~;
#X obj 279 226 lop~ 500;
#X obj 279 257 throw~ mix;
#X obj 366 104 osc~ 0.08;
#X obj 367 141 *~ 0.05;
#X obj 367 178 +~ 0.18;
#X obj 507 51 r root;
#X obj 507 128 mtof;
#X obj 507 159 sig~;
#X obj 507 307 throw~ mix;
#X obj 507 90 + 12;
#X obj 507 196 phasor~;
#X obj 507 233 lop~ 900;
#X obj 507 269 *~;
#X obj 604 175 osc~ 0.05;
#X obj 605 212 *~ 0.04;
#X obj 605 249 +~ 0.12;
#X obj 737 25 noise~;
#X obj 737 56 bp~ 1200 8;
#X obj 737 90 *~ 0.018;
#X obj 737 121 throw~ mix;
#X obj 263 303 r start-music;
#X obj 263 340 metro 300;
#X obj 263 377 f 0;
#X obj 263 412 mod 8;
#X obj 264 445 sel 0 1 2 3 4 5 6 7;
#X msg 263 482 0;
#X obj 326 376 + 1;
#X msg 314 482 4;
#X msg 367 482 7;
#X msg 416 482 12;
#X msg 466 481 7;
#X msg 514 481 4;
#X msg 562 480 9;
#X msg 613 480 12;
#X obj 349 538 t b f;
#X obj 347 575 r root;
#X obj 347 607 +;
#X obj 347 645 + 12;
#X obj 347 679 mtof;
#X obj 347 745 line~;
#X obj 348 776 osc~;
#X obj 348 808 *~;
#X obj 348 842 lop~ 1800;
#X obj 348 905 throw~ mix;
#X obj 511 644 line~;
#X obj 679 319 r start-music;
#X obj 681 442 sel 0 1 2 3 4 5 6 7;
#X obj 766 535 t b f;
#X obj 764 572 r root;
#X obj 764 604 +;
#X obj 764 642 + 12;
#X obj 764 676 mtof;
#X obj 764 710 pack f 90;
#X obj 764 742 line~;
#X obj 765 773 osc~;
#X obj 765 805 *~;
#X obj 765 839 lop~ 1800;
#X obj 765 875 throw~ mix;
#X msg 927 603 0.18 120 \, 0.11 700 \, 0 1800 700;
#X obj 928 641 line~;
#X obj 347 713 pack f 30;
#X obj 382 875 delwrite~ echo 5000;
#X msg 510 606 0.22 40 \, 0.08 250 \, 0 650 250;
#X obj 679 356 metro 1200;
#X obj 681 403 random 8;
#X msg 680 479 12;
#X msg 731 479 16;
#X msg 784 479 19;
#X msg 833 479 24;
#X msg 883 478 21;
#X msg 931 478 19;
#X msg 979 477 16;
#X msg 1031 478 28;
#X obj 823 159 delread~ echo 650;
#X obj 823 190 *~ 0.28;
#X obj 823 219 lop~ 2500;
#X obj 823 252 throw~ mix;
#X obj 975 251 throw~ mix;
#X obj 975 158 delread~ echo 1450;
#X obj 975 189 *~ 0.18;
#X obj 975 218 lop~ 2000;
#X obj 1090 692 catch~ mix;
#X obj 1091 731 hip~ 55;
#X obj 1091 765 lop~ 6000;
#X obj 1090 800 clip~ -0.85 0.85;
#X obj 1090 836 *~ 0.42;
#X obj 1090 870 dac~ 1 2;
#X connect 1 0 2 0;
#X connect 2 0 3 0;
#X connect 4 0 5 0;
#X connect 5 0 6 0;
#X connect 6 0 7 0;
#X connect 6 0 8 0;
#X connect 7 0 9 0;
#X connect 8 0 6 1;
#X connect 9 0 10 0;
#X connect 9 1 11 0;
#X connect 9 2 12 0;
#X connect 9 3 13 0;
#X connect 10 0 14 0;
#X connect 11 0 14 0;
#X connect 12 0 14 0;
#X connect 13 0 14 0;
#X connect 15 0 16 0;
#X connect 16 0 17 0;
#X connect 17 0 18 0;
#X connect 18 0 19 0;
#X connect 19 0 20 0;
#X connect 20 0 21 0;
#X connect 22 0 23 0;
#X connect 23 0 24 0;
#X connect 24 0 19 1;
#X connect 25 0 29 0;
#X connect 26 0 27 0;
#X connect 27 0 30 0;
#X connect 29 0 26 0;
#X connect 30 0 31 0;
#X connect 31 0 32 0;
#X connect 32 0 28 0;
#X connect 33 0 34 0;
#X connect 34 0 35 0;
#X connect 35 0 32 1;
#X connect 36 0 37 0;
#X connect 37 0 38 0;
#X connect 38 0 39 0;
#X connect 40 0 41 0;
#X connect 41 0 42 0;
#X connect 41 0 82 0;
#X connect 42 0 43 0;
#X connect 42 0 46 0;
#X connect 43 0 44 0;
#X connect 44 0 45 0;
#X connect 44 1 47 0;
#X connect 44 2 48 0;
#X connect 44 3 49 0;
#X connect 44 4 50 0;
#X connect 44 5 51 0;
#X connect 44 6 52 0;
#X connect 44 7 53 0;
#X connect 45 0 54 0;
#X connect 46 0 42 1;
#X connect 47 0 54 0;
#X connect 48 0 54 0;
#X connect 49 0 54 0;
#X connect 50 0 54 0;
#X connect 51 0 54 0;
#X connect 52 0 54 0;
#X connect 53 0 54 0;
#X connect 54 0 82 0;
#X connect 54 1 56 1;
#X connect 55 0 56 0;
#X connect 56 0 57 0;
#X connect 57 0 58 0;
#X connect 58 0 80 0;
#X connect 59 0 60 0;
#X connect 60 0 61 0;
#X connect 61 0 62 0;
#X connect 62 0 63 0;
#X connect 62 0 81 0;
#X connect 64 0 61 1;
#X connect 65 0 83 0;
#X connect 66 0 85 0;
#X connect 66 1 86 0;
#X connect 66 2 87 0;
#X connect 66 3 88 0;
#X connect 66 4 89 0;
#X connect 66 5 90 0;
#X connect 66 6 91 0;
#X connect 66 8 92 0;
#X connect 67 0 78 0;
#X connect 67 1 69 1;
#X connect 68 0 69 0;
#X connect 69 0 70 0;
#X connect 70 0 71 0;
#X connect 71 0 72 0;
#X connect 72 0 73 0;
#X connect 73 0 74 0;
#X connect 74 0 75 0;
#X connect 75 0 76 0;
#X connect 76 0 77 0;
#X connect 78 0 79 0;
#X connect 79 0 75 1;
#X connect 80 0 59 0;
#X connect 82 0 64 0;
#X connect 83 0 78 0;
#X connect 83 0 84 0;
#X connect 84 0 66 0;
#X connect 85 0 67 0;
#X connect 86 0 67 0;
#X connect 87 0 67 0;
#X connect 88 0 67 0;
#X connect 89 0 67 0;
#X connect 90 0 67 0;
#X connect 91 0 67 0;
#X connect 92 0 67 0;
#X connect 93 0 94 0;
#X connect 94 0 95 0;
#X connect 95 0 96 0;
#X connect 98 0 99 0;
#X connect 99 0 100 0;
#X connect 100 0 97 0;
#X connect 101 0 102 0;
#X connect 102 0 103 0;
#X connect 103 0 104 0;
#X connect 104 0 105 0;
#X connect 105 0 106 0;
#X connect 105 0 106 1;
