#N canvas 715 101 965 797 12;
#X msg 50 24 \; pd dsp 1, f 13;
#X obj 191 23 loadbang;
#X msg 190 64 0.18;
#X obj 190 109 s~ vol;
#X obj 281 37 osc~ 110;
#X obj 281 143 lop~ 900;
#X obj 281 192 throw~ mix;
#X obj 467 202 throw~ mix;
#X obj 468 40 osc~ 165;
#X obj 468 146 lop~ 700;
#X obj 659 218 throw~ mix;
#X obj 659 50 osc~ 220;
#X obj 658 155 lop~ 600;
#X obj 62 171 osc~ 0.06;
#X obj 63 212 *~ 0.08;
#X obj 63 253 +~ 0.22;
#X obj 63 300 s~ slowmap;
#X obj 378 20 r~ slowmap;
#X obj 569 18 r~ slowmap;
#X obj 767 21 r~ slowmap;
#X obj 201 277 metro 1400;
#X obj 201 319 random 5;
#X obj 200 361 sel 0 1 2 3 4;
#X msg 201 408 55;
#X msg 252 409 62;
#X msg 308 408 67;
#X msg 364 407 74;
#X msg 418 407 81;
#X obj 214 495 mtof;
#X obj 214 532 pack f 80;
#X obj 215 570 line~;
#X obj 214 608 osc~;
#X obj 215 646 *~;
#X obj 267 688 delwrite~ echo 4000;
#X obj 210 733 throw~ mix;
#X obj 510 449 line~;
#X obj 771 370 delread~ echo 900;
#X obj 771 412 *~ 0.35;
#X obj 771 456 lop~ 1800;
#X obj 771 499 throw~ mix;
#X obj 615 544 delread~ echo 1700;
#X obj 617 581 *~ 0.22;
#X obj 618 618 lop~ 1300;
#X obj 619 657 throw~ mix;
#X obj 860 581 catch~ mix;
#X obj 862 618 hip~ 60;
#X obj 864 659 clip~ -0.8 0.8;
#X obj 864 695 *~ 0.45;
#X obj 866 735 dac~ 1 2;
#X obj 281 92 *~;
#X obj 469 98 *~;
#X obj 658 103 *~;
#X msg 510 408 0.16 900 \, 0 3200 900;
#X connect 1 0 2 0;
#X connect 2 0 3 0;
#X connect 4 0 49 0;
#X connect 5 0 6 0;
#X connect 8 0 50 0;
#X connect 9 0 7 0;
#X connect 11 0 51 0;
#X connect 12 0 10 0;
#X connect 13 0 14 0;
#X connect 14 0 15 0;
#X connect 15 0 16 0;
#X connect 17 0 49 1;
#X connect 18 0 50 1;
#X connect 19 0 51 1;
#X connect 20 0 21 0;
#X connect 20 0 52 0;
#X connect 21 0 22 0;
#X connect 22 0 23 0;
#X connect 22 1 24 0;
#X connect 22 2 25 0;
#X connect 22 3 26 0;
#X connect 22 4 27 0;
#X connect 23 0 28 0;
#X connect 24 0 28 0;
#X connect 25 0 28 0;
#X connect 26 0 28 0;
#X connect 27 0 28 0;
#X connect 28 0 29 0;
#X connect 29 0 30 0;
#X connect 30 0 31 0;
#X connect 31 0 32 0;
#X connect 32 0 34 0;
#X connect 32 0 33 0;
#X connect 35 0 32 1;
#X connect 36 0 37 0;
#X connect 37 0 38 0;
#X connect 38 0 39 0;
#X connect 40 0 41 0;
#X connect 41 0 42 0;
#X connect 42 0 43 0;
#X connect 44 0 45 0;
#X connect 45 0 46 0;
#X connect 46 0 47 0;
#X connect 47 0 48 0;
#X connect 47 0 48 1;
#X connect 49 0 5 0;
#X connect 50 0 9 0;
#X connect 51 0 12 0;
#X connect 52 0 35 0;
